{
  "source": "C:\\Users\\Peter\\Desktop\\stuff\\MIUN\\quantitative_research\\video_compression\\videos\\BVI-HD\\BVI-HD_CDVL_videos\\ORIG\\KineticFastPainting_1920x1080_60fps.mp4",
  "output": "C:\\Users\\Peter\\Desktop\\stuff\\MIUN\\quantitative_research\\video_compression\\compressed_videos\\BVI-HD\\vp9\\2.5\\KineticFastPainting_1920x1080_60fps_vp9.webm",
  "codec": "vp9",
  "ok": "Input #0, mov,mp4,m4a,3gp,3g2,mj2, from 'C:\\Users\\Peter\\Desktop\\stuff\\MIUN\\quantitative_research\\video_compression\\videos\\BVI-HD\\BVI-HD_CDVL_videos\\ORIG\\KineticFastPainting_1920x1080_60fps.mp4':\n  Metadata:\n    major_brand     : isom\n    minor_version   : 512\n    compatible_brands: isomiso2avc1mp41\n    encoder         : Lavf54.28.101\n  Duration: 00:00:05.00, start: 0.000000, bitrate: 477980 kb/s\n  Stream #0:0[0x1](und): Video: h264 (High 4:4:4 Predictive) (avc1 / 0x31637661), yuv420p(progressive), 1920x1080, 477974 kb/s, 60 fps, 60 tbr, 60 tbn (default)\n    Metadata:\n      handler_name    : VideoHandler\n      vendor_id       : [0][0][0][0]\n[out#0/webm @ 000002aabb9a9100] Codec AVOption b:a (set bitrate (in bits/s)) has not been used for any stream. The most likely reason is either wrong type (e.g. a video option with no video streams) or that it is a private option of some decoder which was not actually used for any stream.\nStream mapping:\n  Stream #0:0 -> #0:0 (h264 (native) -> vp9 (libvpx-vp9))\nPress [q] to stop, [?] for help\n[libvpx-vp9 @ 000002aabc4000c0] v1.15.2-100-g40561f514\nOutput #0, webm, to 'C:\\Users\\Peter\\Desktop\\stuff\\MIUN\\quantitative_research\\video_compression\\compressed_videos\\BVI-HD\\vp9\\2.5\\KineticFastPainting_1920x1080_60fps_vp9.webm':\n  Metadata:\n    major_brand     : isom\n    minor_version   : 512\n    compatible_brands: isomiso2avc1mp41\n    encoder         : Lavf62.3.100\n  Stream #0:0(und): Video: vp9, yuv420p(tv, progressive), 1920x1080, q=2-31, 2500 kb/s, 60 fps, 1k tbn (default)\n    Metadata:\n      encoder         : Lavc62.11.100 libvpx-vp9\n      handler_name    : VideoHandler\n      vendor_id       : [0][0][0][0]\n    Side data:\n      cpb: bitrate max/min/avg: 0/0/0 buffer size: 2500000 vbv_delay: N/A\nframe=    0 fps=0.0 q=0.0 size=       0KiB time=N/A bitrate=N/A speed=N/A elapsed=0:00:00.52    \nframe=    6 fps=5.4 q=63.0 size=       1KiB time=00:00:00.10 bitrate=  50.6kbits/s speed=0.0899x elapsed=0:00:01.11    \nframe=   12 fps=7.3 q=62.0 size=       1KiB time=00:00:00.20 bitrate=  25.3kbits/s speed=0.122x elapsed=0:00:01.63    \nframe=   17 fps=7.8 q=61.0 size=       1KiB time=00:00:00.28 bitrate=  17.9kbits/s speed=0.131x elapsed=0:00:02.17    \nframe=   22 fps=8.1 q=62.0 size=       1KiB time=00:00:00.36 bitrate=  13.8kbits/s speed=0.135x elapsed=0:00:02.72    \nframe=   26 fps=8.0 q=62.0 size=       1KiB time=00:00:00.43 bitrate=  11.7kbits/s speed=0.133x elapsed=0:00:03.25    \nframe=   31 fps=8.2 q=61.0 size=       1KiB time=00:00:00.51 bitrate=   9.8kbits/s speed=0.137x elapsed=0:00:03.78    \nframe=   36 fps=8.3 q=61.0 size=       1KiB time=00:00:00.60 bitrate=   8.4kbits/s speed=0.139x elapsed=0:00:04.31    \nframe=   41 fps=8.5 q=61.0 size=       1KiB time=00:00:00.68 bitrate=   7.4kbits/s speed=0.141x elapsed=0:00:04.83    \nframe=   45 fps=8.4 q=61.0 size=       1KiB time=00:00:00.75 bitrate=   6.8kbits/s speed=0.14x elapsed=0:00:05.35    \nframe=   49 fps=8.3 q=52.0 size=       1KiB time=00:00:00.81 bitrate=   6.2kbits/s speed=0.139x elapsed=0:00:05.89    \nframe=   54 fps=8.4 q=62.0 size=       1KiB time=00:00:00.88 bitrate=   5.7kbits/s speed=0.137x elapsed=0:00:06.42    \nframe=   58 fps=8.3 q=62.0 size=       1KiB time=00:00:00.96 bitrate=   5.2kbits/s speed=0.139x elapsed=0:00:06.96    \nframe=   62 fps=8.3 q=62.0 size=       1KiB time=00:00:01.03 bitrate=   4.9kbits/s speed=0.138x elapsed=0:00:07.51    \nframe=   66 fps=8.2 q=61.0 size=       1KiB time=00:00:01.10 bitrate=   4.6kbits/s speed=0.137x elapsed=0:00:08.05    \nframe=   71 fps=8.3 q=61.0 size=       1KiB time=00:00:01.18 bitrate=   4.3kbits/s speed=0.138x elapsed=0:00:08.56    \nframe=   75 fps=8.2 q=61.0 size=       1KiB time=00:00:01.25 bitrate=   4.1kbits/s speed=0.137x elapsed=0:00:09.11    \nframe=   79 fps=8.2 q=50.0 size=       1KiB time=00:00:01.31 bitrate=   3.8kbits/s speed=0.137x elapsed=0:00:09.63    \nframe=   84 fps=8.2 q=61.0 size=       1KiB time=00:00:01.40 bitrate=   3.6kbits/s speed=0.137x elapsed=0:00:10.18    \nframe=   88 fps=8.2 q=61.0 size=       1KiB time=00:00:01.46 bitrate=   3.5kbits/s speed=0.137x elapsed=0:00:10.73    \nframe=   92 fps=8.2 q=62.0 size=       1KiB time=00:00:01.53 bitrate=   3.3kbits/s speed=0.136x elapsed=0:00:11.24    \nframe=   96 fps=8.2 q=62.0 size=       1KiB time=00:00:01.60 bitrate=   3.2kbits/s speed=0.136x elapsed=0:00:11.77    \nframe=  101 fps=8.2 q=62.0 size=       1KiB time=00:00:01.68 bitrate=   3.0kbits/s speed=0.137x elapsed=0:00:12.32    \nframe=  105 fps=8.2 q=61.0 size=       1KiB time=00:00:01.75 bitrate=   2.9kbits/s speed=0.136x elapsed=0:00:12.85    \nframe=  109 fps=8.2 q=50.0 size=       1KiB time=00:00:01.81 bitrate=   2.8kbits/s speed=0.136x elapsed=0:00:13.36    \nframe=  114 fps=8.2 q=61.0 size=       1KiB time=00:00:01.90 bitrate=   2.7kbits/s speed=0.137x elapsed=0:00:13.91    \nframe=  118 fps=8.2 q=61.0 size=       1KiB time=00:00:01.96 bitrate=   2.6kbits/s speed=0.136x elapsed=0:00:14.43    \nframe=  122 fps=8.2 q=59.0 size=       1KiB time=00:00:02.03 bitrate=   2.5kbits/s speed=0.136x elapsed=0:00:14.96    \nframe=  127 fps=8.2 q=59.0 size=       1KiB time=00:00:02.11 bitrate=   2.4kbits/s speed=0.137x elapsed=0:00:15.48    \nframe=  132 fps=8.2 q=60.0 size=     512KiB time=00:00:02.20 bitrate=1906.5kbits/s speed=0.137x elapsed=0:00:16.02    \nframe=  136 fps=8.2 q=61.0 size=     512KiB time=00:00:02.26 bitrate=1850.4kbits/s speed=0.137x elapsed=0:00:16.55    \nframe=  140 fps=8.2 q=62.0 size=     512KiB time=00:00:02.33 bitrate=1797.6kbits/s speed=0.137x elapsed=0:00:17.08    \nframe=  145 fps=8.2 q=61.0 size=     512KiB time=00:00:02.41 bitrate=1735.6kbits/s speed=0.137x elapsed=0:00:17.61    \nframe=  148 fps=8.2 q=62.0 size=     512KiB time=00:00:02.46 bitrate=1700.4kbits/s speed=0.136x elapsed=0:00:18.12    \nframe=  152 fps=8.2 q=62.0 size=     512KiB time=00:00:02.53 bitrate=1655.6kbits/s speed=0.136x elapsed=0:00:18.63    \nframe=  157 fps=8.2 q=61.0 size=     512KiB time=00:00:02.61 bitrate=1602.9kbits/s speed=0.136x elapsed=0:00:19.18    \nframe=  161 fps=8.2 q=61.0 size=     512KiB time=00:00:02.68 bitrate=1563.1kbits/s speed=0.136x elapsed=0:00:19.72    \nframe=  165 fps=8.1 q=50.0 size=     512KiB time=00:00:02.75 bitrate=1525.2kbits/s speed=0.136x elapsed=0:00:20.25    \nframe=  170 fps=8.2 q=61.0 size=     512KiB time=00:00:02.83 bitrate=1480.3kbits/s speed=0.136x elapsed=0:00:20.77    \nframe=  174 fps=8.2 q=62.0 size=     512KiB time=00:00:02.90 bitrate=1446.3kbits/s speed=0.136x elapsed=0:00:21.30    \nframe=  178 fps=8.1 q=62.0 size=     512KiB time=00:00:02.96 bitrate=1413.8kbits/s speed=0.136x elapsed=0:00:21.84    \nframe=  182 fps=8.1 q=61.0 size=     512KiB time=00:00:03.03 bitrate=1382.7kbits/s speed=0.136x elapsed=0:00:22.35    \nframe=  188 fps=8.2 q=60.0 size=     512KiB time=00:00:03.13 bitrate=1338.6kbits/s speed=0.137x elapsed=0:00:22.87    \nframe=  192 fps=8.2 q=60.0 size=     512KiB time=00:00:03.20 bitrate=1310.7kbits/s speed=0.137x elapsed=0:00:23.41    \nframe=  196 fps=8.2 q=61.0 size=     512KiB time=00:00:03.26 bitrate=1284.0kbits/s speed=0.136x elapsed=0:00:23.95    \nframe=  200 fps=8.2 q=61.0 size=     512KiB time=00:00:03.33 bitrate=1258.3kbits/s speed=0.136x elapsed=0:00:24.49    \nframe=  205 fps=8.2 q=61.0 size=     512KiB time=00:00:03.41 bitrate=1227.6kbits/s speed=0.137x elapsed=0:00:25.02    \nframe=  209 fps=8.2 q=61.0 size=     512KiB time=00:00:03.48 bitrate=1204.1kbits/s speed=0.136x elapsed=0:00:25.55    \nframe=  214 fps=8.2 q=61.0 size=     512KiB time=00:00:03.56 bitrate=1176.0kbits/s speed=0.137x elapsed=0:00:26.09    \nframe=  218 fps=8.2 q=60.0 size=     512KiB time=00:00:03.63 bitrate=1154.4kbits/s speed=0.136x elapsed=0:00:26.62    \nframe=  223 fps=8.2 q=60.0 size=     512KiB time=00:00:03.71 bitrate=1128.5kbits/s speed=0.137x elapsed=0:00:27.15    \nframe=  227 fps=8.2 q=60.0 size=     512KiB time=00:00:03.78 bitrate=1108.6kbits/s speed=0.137x elapsed=0:00:27.70    \nframe=  232 fps=8.2 q=61.0 size=     512KiB time=00:00:03.86 bitrate=1084.7kbits/s speed=0.137x elapsed=0:00:28.23    \nframe=  236 fps=8.2 q=61.0 size=     512KiB time=00:00:03.93 bitrate=1066.3kbits/s speed=0.137x elapsed=0:00:28.75    \nframe=  240 fps=8.2 q=61.0 size=     512KiB time=00:00:04.00 bitrate=1048.6kbits/s speed=0.137x elapsed=0:00:29.27    \nframe=  244 fps=8.2 q=62.0 size=     512KiB time=00:00:04.06 bitrate=1031.4kbits/s speed=0.136x elapsed=0:00:29.82    \nframe=  248 fps=8.2 q=61.0 size=     512KiB time=00:00:04.13 bitrate=1014.8kbits/s speed=0.136x elapsed=0:00:30.35    \nframe=  253 fps=8.2 q=60.0 size=     512KiB time=00:00:04.21 bitrate= 994.7kbits/s speed=0.136x elapsed=0:00:30.89    \nframe=  258 fps=8.2 q=62.0 size=    1280KiB time=00:00:04.30 bitrate=2438.5kbits/s speed=0.137x elapsed=0:00:31.43    \nframe=  262 fps=8.2 q=62.0 size=    1280KiB time=00:00:04.36 bitrate=2401.3kbits/s speed=0.137x elapsed=0:00:31.96    \nframe=  267 fps=8.2 q=62.0 size=    1280KiB time=00:00:04.45 bitrate=2356.4kbits/s speed=0.137x elapsed=0:00:32.49    \nframe=  272 fps=8.2 q=61.0 size=    1280KiB time=00:00:04.53 bitrate=2313.0kbits/s speed=0.137x elapsed=0:00:33.02    \nframe=  276 fps=8.2 q=62.0 size=    1280KiB time=00:00:04.60 bitrate=2279.5kbits/s speed=0.137x elapsed=0:00:33.55    \nframe=  276 fps=8.1 q=62.0 size=    1280KiB time=00:00:04.60 bitrate=2279.5kbits/s speed=0.135x elapsed=0:00:34.06    \nframe=  276 fps=8.0 q=62.0 size=    1280KiB time=00:00:04.60 bitrate=2279.5kbits/s speed=0.133x elapsed=0:00:34.59    \nframe=  276 fps=7.9 q=62.0 size=    1280KiB time=00:00:04.60 bitrate=2279.5kbits/s speed=0.131x elapsed=0:00:35.11    \nframe=  276 fps=7.7 q=62.0 size=    1280KiB time=00:00:04.60 bitrate=2279.5kbits/s speed=0.129x elapsed=0:00:35.63    \nframe=  276 fps=7.6 q=62.0 size=    1280KiB time=00:00:04.60 bitrate=2279.5kbits/s speed=0.127x elapsed=0:00:36.16    \n[out#0/webm @ 000002aabb9a9100] video:1580KiB audio:0KiB subtitle:0KiB other streams:0KiB global headers:0KiB muxing overhead: 0.175714%\nframe=  300 fps=8.2 q=61.0 Lsize=    1583KiB time=00:00:05.00 bitrate=2593.3kbits/s speed=0.136x elapsed=0:00:36.64    \n",
  "seconds": 37.151241064071655,
  "probe_out": {}
}